 <svg
                width="411"
                height="129.55120602787915"
                viewBox="0 0 370 116.62760639979388"
              >
                <defs id="SvgjsDefs3388">
                  <linearGradient id="SvgjsLinearGradient3395">
                    <stop
                      id="SvgjsStop3396"
                      stopColor="#8f5e25"
                      offset="0"
                    ></stop>
                    <stop
                      id="SvgjsStop3397"
                      stopColor="#fbf4a1"
                      offset="0.5"
                    ></stop>
                    <stop
                      id="SvgjsStop3398"
                      stopColor="#8f5e25"
                      offset="1"
                    ></stop>
                  </linearGradient>
                  <linearGradient id="SvgjsLinearGradient3399">
                    <stop
                      id="SvgjsStop3400"
                      stopColor="#8f5e25"
                      offset="0"
                    ></stop>
                    <stop
                      id="SvgjsStop3401"
                      stopColor="#fbf4a1"
                      offset="0.5"
                    ></stop>
                    <stop
                      id="SvgjsStop3402"
                      stopColor="#8f5e25"
                      offset="1"
                    ></stop>
                  </linearGradient>
                  <linearGradient id="SvgjsLinearGradient3403">
                    <stop
                      id="SvgjsStop3404"
                      stopColor="#8f5e25"
                      offset="0"
                    ></stop>
                    <stop
                      id="SvgjsStop3405"
                      stopColor="#fbf4a1"
                      offset="0.5"
                    ></stop>
                    <stop
                      id="SvgjsStop3406"
                      stopColor="#8f5e25"
                      offset="1"
                    ></stop>
                  </linearGradient>
                </defs>
                <g
                  id="SvgjsG3389"
                  featurekey="symbolFeature-0"
                  transform="matrix(0.34923320674055897,0,0,0.34923320674055897,-2.2824347889477408,6.805059024227415)"
                  fill="url(#SvgjsLinearGradient3395)"
                >
                  <g xmlns="http://www.w3.org/2000/svg">
                    <g>
                      <defs>
                        <rect
                          id="b"
                          x="7"
                          y="6.5"
                          width="286"
                          height="287.1"
                        ></rect>
                      </defs>
                      <clipPath id="a"></clipPath>
                      <g>
                        <path d="M150,198.8c26.1,0,47.2,21.2,47.2,47.4s-21.1,47.4-47.2,47.4s-47.2-21.2-47.2-47.4S123.9,198.8,150,198.8z"></path>
                        <path d="M198.7,152.9c-0.1-1.1-0.1-2.2-0.1-3.3c0.1-12.4-4.5-24.4-13.3-33.2l-2-2c-8.7-8.7-20.5-13.4-32.8-13.3     c-0.2,0-0.5,0-0.7,0s-0.5,0-0.7,0c-12.3-0.2-24.1,4.6-32.8,13.3l-2,2c-8.8,8.8-13.3,20.8-13.3,33.2c0,1.1,0,2.2-0.1,3.3     c-1.3,23.3-19.8,42.4-43.1,44.3c-29.3,2.5-53.5-21.9-51.1-51.3c1.9-23.3,21-41.8,44.1-43.2c1-0.1,2.2-0.1,3.2-0.1     c12.4,0.1,24.3-4.5,33.1-13.3l2-2c8.8-8.8,13.3-20.8,13.3-33.2c0-1.6,0.1-3.3,0.2-4.9c2.1-22.9,20.8-41.1,43.7-42.8     C174,4.5,197,26.4,197,53.6c0,0.2,0,0.5,0,0.7c-0.2,12.3,4.6,24.2,13.3,32.9l2,2c8.8,8.8,20.7,13.4,33.1,13.3c1,0,2.1,0,3.2,0.1     c23.3,1.3,42.2,19.9,44.1,43.2c2.5,29.4-21.8,53.7-51.1,51.3C218.5,195.3,200.1,176.1,198.7,152.9z"></path>
                      </g>
                    </g>
                  </g>
                </g>
                <g
                  id="SvgjsG3390"
                  featurekey="nameFeature-0"
                  transform="matrix(2.7732757373072787,0,0,2.7732757373072787,78.98407712919243,-33.27874814969663)"
                  fill="url(#SvgjsLinearGradient3399)"
                >
                  <path d="M37 20.594 c0.73952 1.695 1.1092 3.4965 1.1092 5.4048 c0 1.9109 -0.36976 3.7124 -1.1093 5.4064 c-0.73952 1.695 -1.7422 3.1819 -3.0053 4.4588 c-1.2658 1.278 -2.7509 2.2859 -4.4588 3.0254 c-1.7081 0.7404 -3.5167 1.1102 -5.426 1.1102 l-9.3201 0 l4.64 -4.68 l4.6802 0 c1.2902 0 2.5009 -0.24215 3.6303 -0.7264 s2.118 -1.1565 2.966 -2.0175 c0.84704 -0.86016 1.5123 -1.8558 1.9965 -2.9852 c0.48424 -1.1303 0.7264 -2.3261 0.7264 -3.591 c0 -1.2631 -0.24215 -2.4607 -0.7264 -3.5901 s-1.1574 -2.125 -2.0175 -2.9852 c-0.861 -0.861 -1.8558 -1.5332 -2.9852 -2.0175 c-1.1294 -0.48516 -2.327 -0.7264 -3.5901 -0.7264 l-4.6802 0 l-4.64 -4.68 l9.3201 0 c1.9091 0 3.7116 0.37062 5.4056 1.1092 c1.695 0.7404 3.1801 1.7491 4.458 3.0262 c1.2771 1.278 2.2859 2.7641 3.0262 4.458 z M36.2 31.0564 c0.68708 -1.5752 1.0358 -3.2762 1.0358 -5.056 s-0.34879 -3.4817 -1.0358 -5.0568 c-0.69232 -1.5848 -1.6486 -2.9939 -2.8436 -4.1896 c-1.1958 -1.1941 -2.6049 -2.1504 -4.1896 -2.8427 c-1.5761 -0.68796 -3.278 -1.0368 -5.056 -1.0368 l-7.223 0 l2.9065 2.9319 l4.3165 0 c1.3794 0 2.7028 0.26836 3.9354 0.79724 c1.2247 0.52448 2.3209 1.2658 3.2579 2.202 c0.9362 0.9362 1.6766 2.0332 2.2028 3.2596 c0.52888 1.2343 0.79724 2.5577 0.79724 3.9345 s-0.26836 2.7002 -0.79724 3.9354 c-0.52536 1.2247 -1.2579 2.32 -2.1775 3.2544 c-0.92224 0.93708 -2.014 1.6801 -3.244 2.2072 c-1.2343 0.52888 -2.5717 0.79724 -3.9747 0.79724 l-4.3165 0 l-2.9065 2.9319 l7.223 0 c1.7798 0 3.4887 -0.34879 5.078 -1.0376 c1.5971 -0.69144 3.0053 -1.646 4.1856 -2.8384 c1.181 -1.1941 2.132 -2.6049 2.8261 -4.1932 z M60.39 20.594 c0.73952 1.695 1.1092 3.4965 1.1092 5.4048 c0 1.9109 -0.36976 3.7124 -1.1093 5.4064 c-0.73952 1.695 -1.7422 3.1819 -3.0053 4.4588 c-1.2658 1.278 -2.7509 2.2859 -4.4588 3.0254 c-1.7081 0.7404 -3.5167 1.1102 -5.426 1.1102 l-9.3201 0 l4.64 -4.68 l4.6802 0 c1.2902 0 2.5009 -0.24215 3.6303 -0.7264 s2.118 -1.1565 2.966 -2.0175 c0.84704 -0.86016 1.5123 -1.8558 1.9965 -2.9852 c0.48424 -1.1303 0.7264 -2.3261 0.7264 -3.591 c0 -1.2631 -0.24215 -2.4607 -0.7264 -3.5901 s-1.1574 -2.125 -2.0175 -2.9852 c-0.861 -0.861 -1.8558 -1.5332 -2.9852 -2.0175 c-1.1294 -0.48516 -2.327 -0.7264 -3.5901 -0.7264 l-4.6802 0 l-4.64 -4.68 l9.3201 0 c1.9091 0 3.7116 0.37062 5.4056 1.1092 c1.695 0.7404 3.1801 1.7491 4.458 3.0262 c1.2771 1.278 2.2859 2.7641 3.0262 4.458 z M59.589999999999996 31.0564 c0.68708 -1.5752 1.0358 -3.2762 1.0358 -5.056 s-0.34879 -3.4817 -1.0358 -5.0568 c-0.69232 -1.5848 -1.6486 -2.9939 -2.8436 -4.1896 c-1.1958 -1.1941 -2.6049 -2.1504 -4.1896 -2.8427 c-1.5761 -0.68796 -3.278 -1.0368 -5.056 -1.0368 l-7.223 0 l2.9065 2.9319 l4.3165 0 c1.3794 0 2.7028 0.26836 3.9354 0.79724 c1.2247 0.52448 2.3209 1.2658 3.2579 2.202 c0.9362 0.9362 1.6766 2.0332 2.2028 3.2596 c0.52888 1.2343 0.79724 2.5577 0.79724 3.9345 s-0.26836 2.7002 -0.79724 3.9354 c-0.52536 1.2247 -1.2579 2.32 -2.1775 3.2544 c-0.92224 0.93708 -2.014 1.6801 -3.244 2.2072 c-1.2343 0.52888 -2.5717 0.79724 -3.9747 0.79724 l-4.3165 0 l-2.9065 2.9319 l7.223 0 c1.7798 0 3.4887 -0.34879 5.078 -1.0376 c1.5971 -0.69144 3.0053 -1.646 4.1856 -2.8384 c1.181 -1.1941 2.132 -2.6049 2.8261 -4.1932 z M65.57 39.61492 l4.6392 -4.2956 l14 0 l0 4.6802 l-18.639 0 l0 -0.38461 z M83.336 36.1944 l-12.783 0 l-3.167 2.9319 l15.95 0 l0 -2.9319 z M65.57 12 l18.64 0 l0 4.6802 l-14 0 z M83.336 15.806000000000001 l0 -2.9319 l-15.668 0 l2.9065 2.9319 l12.762 0 z M65.57 28.34 l0 -4.64 l18.639 0 l0 4.64 l-18.639 0 z M66.44409999999999 24.573999999999998 l0 2.8917 l16.891 0 l0 -2.8917 l-16.891 0 z M93.5248 12 l11.411 22.769 l-2.6154 5.2308 l-14 -28 l5.2046 0 z M89.7336 12.873999999999999 l12.586 25.171 l1.6381 -3.2754 l-10.973 -21.896 l-3.2509 0 z"></path>
                </g>
                <g
                  id="SvgjsG3391"
                  featurekey="sloganFeature-0"
                  transform="matrix(0.8134098437038249,0,0,0.8134098437038249,119.227261046042,96.85309214752809)"
                  fill="url(#SvgjsLinearGradient3403)"
                >
                  <path d="M11.5 6 c0.18 0 0.3 0.12 0.3 0.3 l0 1.1 c0 0.18 -0.12 0.3 -0.3 0.3 l-4.19 0 l0 12 c0 0.18 -0.12 0.3 -0.3 0.3 l-1.27 0 c-0.18 0 -0.3 -0.12 -0.3 -0.3 l0 -12 l-4.19 0 c-0.18 0 -0.3 -0.12 -0.3 -0.3 l0 -1.1 c0 -0.18 0.12 -0.3 0.3 -0.3 l10.25 0 z M22.670499999999997 14.57 l2.68 5.08 c0.11 0.21 0.01 0.35 -0.22 0.35 l-1.32 0 c-0.16 0 -0.27 -0.07 -0.35 -0.22 l-2.58 -4.99 l-0.29 0 l-3.39 0 l0 4.91 c0 0.18 -0.12 0.3 -0.3 0.3 l-1.27 0 c-0.18 0 -0.3 -0.12 -0.3 -0.3 l0 -13.4 c0 -0.18 0.12 -0.3 0.3 -0.3 l4.96 0 c3.69 0 5.04 1.56 5.04 4.39 c0 2.22 -0.83 3.66 -2.96 4.18 z M17.200499999999998 7.699999999999999 l0 5.39 l3.52 0 c1.86 0 3.1 -0.5 3.1 -2.7 c0 -2.19 -1.24 -2.69 -3.1 -2.69 l-3.52 0 z M40.431 19.66 c0.08 0.2 -0.02 0.34 -0.24 0.34 l-1.29 0 c-0.16 0 -0.27 -0.06 -0.34 -0.24 l-0.99 -2.69 l-6.42 0 l-0.99 2.69 c-0.07 0.18 -0.18 0.24 -0.34 0.24 l-1.29 0 c-0.22 0 -0.32 -0.14 -0.24 -0.34 l5.08 -13.42 c0.06 -0.16 0.2 -0.24 0.36 -0.24 l1.26 0 c0.16 0 0.3 0.08 0.36 0.24 z M31.761 15.42 l5.2 0 l-2.6 -7.08 z M52.9415 18.3 c0.18 0 0.3 0.12 0.3 0.3 l0 1.1 c0 0.18 -0.12 0.3 -0.3 0.3 l-9.05 0 c-0.18 0 -0.3 -0.12 -0.3 -0.3 l0 -1.2 c0 -0.14 0.04 -0.24 0.12 -0.36 l7.25 -10.44 l-6.87 0 c-0.18 0 -0.3 -0.12 -0.3 -0.3 l0 -1.1 c0 -0.18 0.12 -0.3 0.3 -0.3 l8.65 0 c0.18 0 0.3 0.12 0.3 0.3 l0 1.2 c0 0.14 -0.04 0.24 -0.12 0.36 l-7.25 10.44 l7.27 0 z M66.172 18.3 c0.18 0 0.3 0.12 0.3 0.3 l0 1.1 c0 0.18 -0.12 0.3 -0.3 0.3 l-8.55 0 c-0.18 0 -0.3 -0.12 -0.3 -0.3 l0 -13.4 c0 -0.18 0.12 -0.3 0.3 -0.3 l8.53 0 c0.18 0 0.3 0.12 0.3 0.3 l0 1.1 c0 0.18 -0.12 0.3 -0.3 0.3 l-6.96 0 l0 4.15 l6.43 0 c0.18 0 0.3 0.12 0.3 0.3 l0 1.1 c0 0.18 -0.12 0.3 -0.3 0.3 l-6.43 0 l0 4.75 l6.98 0 z M80.6625 6 c0.18 0 0.3 0.12 0.3 0.3 l0 13.4 c0 0.16 -0.1 0.28 -0.25 0.3 l-1.64 0 c-0.16 0 -0.28 -0.06 -0.36 -0.2 l-6.44 -11.04 l0 10.94 c0 0.18 -0.12 0.3 -0.3 0.3 l-1.27 0 c-0.18 0 -0.3 -0.12 -0.3 -0.3 l0 -13.4 c0 -0.17 0.1 -0.28 0.26 -0.3 l1.63 0 c0.16 0 0.28 0.06 0.36 0.2 l6.44 11.03 l0 -10.93 c0 -0.18 0.12 -0.3 0.3 -0.3 l1.27 0 z M88.893 6 c4.85 0 7.33 3.05 7.33 7 c0 3.94 -2.48 7 -7.33 7 l-3.35 0 c-0.18 0 -0.3 -0.12 -0.3 -0.3 l0 -13.4 c0 -0.18 0.12 -0.3 0.3 -0.3 l3.35 0 z M88.893 18.3 c3.63 0 5.43 -2.01 5.43 -5.3 c0 -3.3 -1.8 -5.3 -5.43 -5.3 l-1.78 0 l0 10.6 l1.78 0 z M106.52350000000001 20.26 c-3.96 0 -7.17 -3.2 -7.17 -7.2 c0 -4.02 3.21 -7.22 7.17 -7.22 c3.95 0 7.16 3.2 7.16 7.22 c0 4 -3.21 7.2 -7.16 7.2 z M106.52350000000001 18.49 c2.97 0 5.32 -2.4 5.32 -5.43 c0 -3.05 -2.35 -5.45 -5.32 -5.45 c-2.98 0 -5.33 2.4 -5.33 5.45 c0 3.03 2.35 5.43 5.33 5.43 z M130.64450000000002 12.01 c2.72 0.56 5.21 1.37 5.21 4.33 c0 2.4 -1.61 3.96 -5.15 3.96 c-3.03 0 -4.85 -1.12 -5.06 -3.42 c-0.02 -0.2 0.1 -0.36 0.28 -0.36 l1.22 0 c0.18 0 0.28 0.14 0.3 0.3 c0.17 1.1 1.33 1.78 3.26 1.78 c2.13 0 3.31 -0.72 3.31 -2.24 c0 -1.77 -1.23 -2.15 -3.37 -2.65 c-2.54 -0.58 -4.68 -1.45 -4.68 -4.16 c0 -2.26 1.53 -3.72 4.62 -3.72 c2.86 0 4.62 1.09 4.85 3.35 c0.02 0.2 -0.1 0.3 -0.28 0.3 l-1.13 0 c-0.18 0 -0.28 -0.08 -0.3 -0.24 c-0.15 -1.02 -1.26 -1.74 -3.13 -1.74 c-1.72 0 -2.83 0.7 -2.83 2.05 c0 1.36 0.91 2.05 2.88 2.46 z M146.305 20.26 c-3.96 0 -7.17 -3.2 -7.17 -7.2 c0 -4.02 3.21 -7.22 7.17 -7.22 c3.95 0 7.16 3.2 7.16 7.22 c0 4 -3.21 7.2 -7.16 7.2 z M146.305 18.49 c2.97 0 5.32 -2.4 5.32 -5.43 c0 -3.05 -2.35 -5.45 -5.32 -5.45 c-2.98 0 -5.33 2.4 -5.33 5.45 c0 3.03 2.35 5.43 5.33 5.43 z M166.0955 18.3 c0.18 0 0.3 0.12 0.3 0.3 l0 1.1 c0 0.18 -0.12 0.3 -0.3 0.3 l-8.45 0 c-0.18 0 -0.3 -0.12 -0.3 -0.3 l0 -13.4 c0 -0.18 0.12 -0.3 0.3 -0.3 l1.27 0 c0.18 0 0.3 0.12 0.3 0.3 l0 12 l6.88 0 z M180.656 6 c0.18 0 0.3 0.12 0.3 0.3 l0 8.04 c0 3.98 -2.15 5.95 -5.67 5.95 c-3.51 0 -5.66 -1.97 -5.66 -5.95 l0 -8.04 c0 -0.18 0.12 -0.3 0.3 -0.3 l1.27 0 c0.18 0 0.3 0.12 0.3 0.3 l0 8.04 c0 2.83 1.5 4.18 3.79 4.18 c2.3 0 3.8 -1.35 3.8 -4.18 l0 -8.04 c0 -0.18 0.12 -0.3 0.3 -0.3 l1.27 0 z M195.54650000000004 17.08 l0.8 0.84 c0.14 0.14 0.13 0.29 -0.01 0.42 c-1.23 1.18 -2.74 1.87 -4.57 1.92 l-0.49 0.49 c0.87 0.07 1.66 0.63 1.66 1.57 c0 1.68 -1.65 2.18 -3.15 1.93 c-0.12 -0.02 -0.18 -0.1 -0.18 -0.22 l0 -0.65 c0 -0.12 0.08 -0.22 0.22 -0.2 c1.1 0.16 1.75 -0.16 1.75 -0.75 c0 -0.53 -0.79 -0.92 -1.73 -0.52 c-0.14 0.06 -0.24 0 -0.24 -0.14 l0 -0.64 c0 -0.1 0.04 -0.16 0.1 -0.24 l0.7 -0.72 c-3.41 -0.56 -5.92 -3.51 -5.92 -7.11 c0 -4.03 3.1 -7.22 7.08 -7.22 c1.92 0 3.49 0.73 4.77 1.91 c0.14 0.13 0.15 0.28 0.01 0.42 l-0.8 0.85 c-0.14 0.14 -0.28 0.12 -0.42 0 c-0.99 -0.84 -2.11 -1.36 -3.56 -1.36 c-2.87 0 -5.17 2.31 -5.17 5.4 c0 3.06 2.3 5.37 5.17 5.37 c1.45 0 2.57 -0.51 3.56 -1.36 c0.14 -0.12 0.28 -0.13 0.42 0.01 z M205.49700000000004 1.4100000000000001 c1.48 0 1.93 1.39 2.96 1.39 c0.52 0 0.77 -0.33 0.88 -0.61 c0.04 -0.11 0.1 -0.17 0.22 -0.17 l0.52 0 c0.12 0 0.21 0.08 0.2 0.2 c-0.12 1.11 -0.86 1.7 -1.86 1.7 c-1.48 0 -1.96 -1.39 -2.96 -1.39 c-0.55 0 -0.8 0.33 -0.91 0.61 c-0.04 0.11 -0.1 0.17 -0.22 0.17 l-0.52 0 c-0.12 0 -0.2 -0.08 -0.18 -0.24 c0.13 -1.08 0.82 -1.66 1.87 -1.66 z M206.94700000000003 20.26 c-3.96 0 -7.17 -3.2 -7.17 -7.2 c0 -4.02 3.21 -7.22 7.17 -7.22 c3.95 0 7.16 3.2 7.16 7.22 c0 4 -3.21 7.2 -7.16 7.2 z M206.94700000000003 18.49 c2.97 0 5.32 -2.4 5.32 -5.43 c0 -3.05 -2.35 -5.45 -5.32 -5.45 c-2.98 0 -5.33 2.4 -5.33 5.45 c0 3.03 2.35 5.43 5.33 5.43 z M226.83750000000003 18.3 c0.18 0 0.3 0.12 0.3 0.3 l0 1.1 c0 0.18 -0.12 0.3 -0.3 0.3 l-8.55 0 c-0.18 0 -0.3 -0.12 -0.3 -0.3 l0 -13.4 c0 -0.18 0.12 -0.3 0.3 -0.3 l8.53 0 c0.18 0 0.3 0.12 0.3 0.3 l0 1.1 c0 0.18 -0.12 0.3 -0.3 0.3 l-6.96 0 l0 4.15 l6.43 0 c0.18 0 0.3 0.12 0.3 0.3 l0 1.1 c0 0.18 -0.12 0.3 -0.3 0.3 l-6.43 0 l0 4.75 l6.98 0 z M235.46800000000002 12.01 c2.72 0.56 5.21 1.37 5.21 4.33 c0 2.4 -1.61 3.96 -5.15 3.96 c-3.03 0 -4.85 -1.12 -5.06 -3.42 c-0.02 -0.2 0.1 -0.36 0.28 -0.36 l1.22 0 c0.18 0 0.28 0.14 0.3 0.3 c0.17 1.1 1.33 1.78 3.26 1.78 c2.13 0 3.31 -0.72 3.31 -2.24 c0 -1.77 -1.23 -2.15 -3.37 -2.65 c-2.54 -0.58 -4.68 -1.45 -4.68 -4.16 c0 -2.26 1.53 -3.72 4.62 -3.72 c2.86 0 4.62 1.09 4.85 3.35 c0.02 0.2 -0.1 0.3 -0.28 0.3 l-1.13 0 c-0.18 0 -0.28 -0.08 -0.3 -0.24 c-0.15 -1.02 -1.26 -1.74 -3.13 -1.74 c-1.72 0 -2.83 0.7 -2.83 2.05 c0 1.36 0.91 2.05 2.88 2.46 z M245.41850000000002 20.26 c-0.79 0 -1.41 -0.62 -1.41 -1.41 s0.62 -1.43 1.41 -1.43 s1.41 0.64 1.41 1.43 s-0.62 1.41 -1.41 1.41 z"></path>
                </g>
              </svg>